HIERARCHY
ROOT hip
{
  OFFSET 0.0 0.0 0.0
  CHANNELS 6 Xposition Yposition Zposition Zrotation Yrotation Xrotation
  JOINT torso
  {
    OFFSET 0.0 0.0 0.0
    CHANNELS 3 Zrotation Xrotation Yrotation
    JOINT neck
    {
      OFFSET -20.11218299999996 327.95800799999995 66.30578600000035
      CHANNELS 3 Zrotation Xrotation Yrotation
      JOINT head
      {
        OFFSET 18.28939800000012 288.83178699999996 217.81652800000006
        CHANNELS 3 Zrotation Xrotation Yrotation
        End Site
        {
          OFFSET 0.0 0.0 0.0
        }
      }
    }
    JOINT left_collar
    {
      OFFSET -20.11218299999996 327.95800799999995 66.30578600000035
      CHANNELS 3 Zrotation Xrotation Yrotation
      JOINT left_upper_arm
      {
        OFFSET -127.08163400000001 -16.17407199999991 15.44799799999987
        CHANNELS 3 Zrotation Xrotation Yrotation
        JOINT left_forearm
        {
          OFFSET -234.267792 45.78796399999999 109.31286600000021
          CHANNELS 3 Zrotation Xrotation Yrotation
          JOINT left_hand
          {
            OFFSET -259.114014 -33.25433399999997 16.18847699999992
            CHANNELS 3 Zrotation Xrotation Yrotation
            End Site
            {
              OFFSET 0.0 0.0 0.0
            }
          }
        }
      }
    }
    JOINT right_collar
    {
      OFFSET -20.11218299999996 327.95800799999995 66.30578600000035
      CHANNELS 3 Zrotation Xrotation Yrotation
      JOINT right_upper_arm
      {
        OFFSET 164.513184 1.5733030000000099 4.892333999999892
        CHANNELS 3 Zrotation Xrotation Yrotation
        JOINT right_forearm
        {
          OFFSET 260.742027 48.718444999999974 144.35229500000014
          CHANNELS 3 Zrotation Xrotation Yrotation
          JOINT right_hand
          {
            OFFSET 287.85150899999996 -44.57171600000015 13.96813899999961
            CHANNELS 3 Zrotation Xrotation Yrotation
            End Site
            {
              OFFSET 0.0 0.0 0.0
            }
          }
        }
      }
    }
  }
}
MOTION
Frames: 13
Frame Time: 0.01
-253.39479889497505 221.11562467048012 1400.6876317469473 6.425667914981077 -21.111776171730636 -13.124607341919601 -0.3186310297866365 1.6361594757826763 0.1606518301469802 -3.7161614127420104 0.8922651056198166 2.7391957019553317 0.0 0.0 0.0 6.6545827535900735 0.19016777950158745 3.345154057162375 18.483888126551232 8.54000933491349 -55.746980913309564 -15.12377692704851 -1.049630527942242 -23.17652277990285 0.0 0.0 0.0 -1.4366367303125092 0.04427469602849175 0.520700170500898 -17.5658032808813 11.785809692193807 79.59084848677989 8.867138263111274 0.7177449805645545 14.830852702726833 0.0 0.0 0.0
-254.78738851788148 221.01942963787363 1399.7655863960629 6.543388172236744 -21.25597104216708 -12.771997318080796 -0.3879257339383459 1.6739443813785513 0.17590866410308692 -3.6961986094903754 0.9796677352528804 2.717297882049251 0.0 0.0 0.0 6.5678502999736095 0.19929629082253128 3.2524596932420433 18.247715835888627 8.23829240514455 -55.92633274552077 -15.228878054058836 -1.0774659393283772 -23.090385790344566 0.0 0.0 0.0 -1.4775915164093083 0.04523849982031017 0.38901186803265597 -17.50929226178282 11.659397302522054 79.7552968301815 8.95437465878941 0.702955181568999 14.842249646902204 0.0 0.0 0.0
-256.15973555672105 220.91724995509102 1398.8891981324955 6.660700624812116 -21.39247063420343 -12.398992860682242 -0.4598375033809436 1.7005282954695706 0.190964084247222 -3.6692175923899537 1.071250471717419 2.689790273851911 0.0 0.0 0.0 6.476417878132469 0.21122322273110292 3.141456142852834 18.020414867487457 7.945842855048347 -56.09835880219873 -15.330925524626709 -1.104309265570347 -23.00372646322018 0.0 0.0 0.0 -1.5210337559472393 0.04612151917107751 0.23955560288142244 -17.455011162665173 11.537224866970135 79.91779979614637 9.043679617518713 0.6878835849535548 14.85503095985058 0.0 0.0 0.0
-257.5111155832036 220.80947613035343 1398.057991587505 6.775978300192034 -21.519696431923578 -12.007528819169462 -0.5328973633269242 1.7148021031974867 0.2054974098877928 -3.635898144814028 1.1662886486950248 2.6572495867742605 0.0 0.0 0.0 6.38118121878446 0.225584424656776 3.0142762086479316 17.801792575276448 7.662648009742873 -56.262919139856855 -15.429766798138226 -1.1301266487441204 -22.916653186902845 0.0 0.0 0.0 -1.5666309579729105 0.04689331949989944 0.07466251793797586 -17.40281067748065 11.41902402514003 80.07869946793697 9.134752307111116 0.6725782501043799 14.869168591663982 0.0 0.0 0.0
-258.8409724838511 220.69664914304298 1397.2711569427777 6.887664619671147 -21.63626339018887 -11.59988165982005 -0.6056535738464868 1.7159532764351597 0.21921256381520327 -3.59702474525888 1.2639396995112617 2.6203400609298426 0.0 0.0 0.0 6.283102367466242 0.24197113384375102 2.8733729522542677 17.5916282459084 7.388650525200927 -56.41991170911178 -15.525272453457582 -1.1548915375519775 -22.82929443838275 0.0 0.0 0.0 -1.6139837257084437 0.04752677557645059 -0.10299669991518808 -17.352586823079232 11.304619075763082 80.2381875054044 9.227228821174982 0.6571022367304798 14.88468177490826 0.0 0.0 0.0
-260.14892765313596 220.57945032170207 1396.5275729445477 6.994326639663148 -21.74103860238154 -11.178630315106574 -0.6767151400071566 1.7035131650086337 0.23184646764345404 -3.5534709910240667 1.3632646762899394 2.5797995407537164 0.0 0.0 0.0 6.18318901416099 0.2599412567000289 2.7214664110250446 17.389676983154317 7.123751567189499 -56.56928050128825 -15.617334890852941 -1.1785842478569388 -22.741792987480565 0.0 0.0 0.0 -1.6626324580160683 0.04800002996790076 -0.29047495672778495 -17.3042808648206 11.19393217570205 80.3963155925742 9.320692433570517 0.6415310370042486 14.901628937249903 0.0 0.0 0.0
-261.4347835174128 220.4586869246841 1395.8258409393031 7.094701501182705 -21.833191357079958 -10.746607409425867 -0.7447906564327413 1.6773928585122686 0.2431756783401353 -3.506181259955787 1.4632524016909596 2.536423313767215 0.0 0.0 0.0 6.082471737476679 0.2790313279346078 2.5614816548994317 17.19567385922587 6.867814471813112 -56.711020933339846 -15.705866638537739 -1.2011913937958525 -22.654301115745668 0.0 0.0 0.0 -1.7120663890901255 0.04829820420041155 -0.4846205874380947 -17.25787761705059 11.086984366445806 80.55301079625345 9.414684769341877 0.6259498399961944 14.920099052780788 0.0 0.0 0.0
-262.69852142856024 220.33527380237396 1395.1643284511235 7.1877335615876685 -21.912230928374928 -10.306841415998134 -0.8087209879421824 1.637904357851097 0.2530211069315903 -3.4561499515231477 1.5628451051366266 2.4910461026570943 0.0 0.0 0.0 5.981979824936332 0.29876867593824447 2.396479839804072 17.00933837753215 6.620669070008532 -56.84518190623807 -15.790798474321056 -1.2227052599629389 -22.56697706937603 0.0 0.0 0.0 -1.761734577332068 0.04841469731840631 -0.6821554983012689 -17.21340238509819 10.98389286468941 80.70809486895185 9.50871761251334 0.6104507136946503 14.940202816919589 0.0 0.0 0.0
-263.94029412060837 220.2102115257282 1394.541220496441 7.272600516914327 -21.978029134807453 -9.862490349794177 -0.8675049579368888 1.5857645107682112 0.26125081867957134 -3.404398645868407 1.6609644960053587 2.4445225821213317 0.0 0.0 0.0 5.8827163198568595 0.31868341532578826 2.229583801180134 16.83037929579972 6.382116860524684 -56.971864187474495 -15.872077537537658 -1.2431231739851265 -22.47998287475068 0.0 0.0 0.0 -1.8110585114641182 0.04835193853022836 -0.8797574675066046 -17.1709168270651 10.884865113786567 80.8613065022715 9.602285084932817 0.5951297763666191 14.962063932352825 0.0 0.0 0.0
-265.1604130538 220.08456136459637 1393.9545766852063 7.34872778224948 -22.030825758309664 -9.41676782907023 -0.920317877672278 1.5220802184490578 0.26778105023828913 -3.351951552929256 1.7565374354492085 2.3977067907703193 0.0 0.0 0.0 5.785632977752735 0.33831997415512055 2.063899748173433 16.658499814572558 6.151937138161005 -57.09121512823324 -15.949665628236705 -1.2624469416009112 -22.393483534576234 0.0 0.0 0.0 -1.8594461069287886 0.048121504779062366 -1.0741447384016176 -17.130513980707377 10.790190049428634 81.01232558124855 9.69487596476461 0.5800844152025246 14.98581074442458 0.0 0.0 0.0
-266.3593311141303 219.95941756575596 1393.402392017411 7.415791316132164 -22.071216169228627 -8.972862884537138 -0.9665232603226707 1.4483147034584427 0.272575668286075 -3.2998097461877167 1.8485205956659976 2.3514308703717095 0.0 0.0 0.0 5.6916059327671915 0.35724791492442337 1.9024369222796096 16.493403048016564 5.9298940298111615 -57.20342015320699 -16.023537933214378 -1.2806824133929982 -22.30764750519201 0.0 0.0 0.0 -1.9063069440701668 0.04774356609331868 -1.2621611172764549 -17.092312653106035 10.700226956024776 81.16079855646805 9.785985935251645 0.5654106008532112 15.011568446965988 0.0 0.0 0.0
-267.5376213090206 219.83587755700972 1392.8826590829801 7.473709866350518 -22.100121824518833 -8.533855806880053 -1.0056783713801838 1.366236061188611 0.2756443332593313 -3.2489249056287712 1.9359236376388926 2.3064837125622857 0.0 0.0 0.0 5.601413036660711 0.3750718168706401 1.7480276688352225 16.33479760098753 5.715744217895301 -57.30869181840571 -16.09368242941052 -1.2978392501579794 -22.222648244503333 0.0 0.0 0.0 -1.9510685582225207 0.047245678492584584 -1.4408594843363562 -17.056451347703216 10.615392275326153 81.30636406008063 9.875129535493606 0.5512003458995357 15.039452079075446 0.0 0.0 0.0
-268.6959522923944 219.7150109914956 1392.393429181871 7.522628235572638 -22.11874559898367 -8.102633501890326 -1.037534374742319 1.2778508001653404 0.27703962998457254 -3.200173609344759 2.0178304514587926 2.2635903139287374 0.0 0.0 0.0 5.515713968218958 0.391439959731476 1.6032511142408559 16.18240301325296 5.509244996126853 -57.407257424680445 -16.160100170580733 -1.3139309370783785 -22.138666528627844 0.0 0.0 0.0 -1.9931933943848377 0.04666100441541153 -1.6075809515497876 -17.023081920137454 10.536144817558478 81.44867782015305 9.961851522475648 0.5375393637468523 15.069560541435843 0.0 0.0 0.0
